<svg width="150" height="150" viewBox="0 0 150 150" xmlns="http://www.w3.org/2000/svg">
  <rect width="150" height="150" fill="black"/>
  <g>
    <rect x="20" y="40" width="10" height="10" fill="white" />
    <rect x="20" y="50" width="10" height="10" fill="white" />
    <rect x="20" y="60" width="10" height="10" fill="white" />
    <rect x="20" y="70" width="10" height="10" fill="white" />
    <rect x="20" y="80" width="10" height="10" fill="white" />
    <rect x="20" y="90" width="10" height="10" fill="white" />
    <rect x="30" y="70" width="10" height="10" fill="white" />
    <rect x="40" y="70" width="10" height="10" fill="white" />
    <rect x="50" y="40" width="10" height="10" fill="white" />
    <rect x="50" y="50" width="10" height="10" fill="white" />
    <rect x="50" y="60" width="10" height="10" fill="white" />
    <rect x="50" y="70" width="10" height="10" fill="white" />
    <rect x="50" y="80" width="10" height="10" fill="white" />
    <rect x="50" y="90" width="10" height="10" fill="white" />
  </g>
  <g>
    <rect x="80" y="40" width="10" height="10" fill="white" />
    <rect x="80" y="50" width="10" height="10" fill="white" />
    <rect x="80" y="60" width="10" height="10" fill="white" />
    <rect x="80" y="70" width="10" height="10" fill="white" />
    <rect x="80" y="80" width="10" height="10" fill="white" />
    <rect x="80" y="90" width="10" height="10" fill="white" />
    <rect x="90" y="40" width="10" height="10" fill="white" />
    <rect x="100" y="40" width="10" height="10" fill="white" />
    <rect x="110" y="50" width="10" height="10" fill="white" />
    <rect x="110" y="60" width="10" height="10" fill="white" />
    <rect x="110" y="70" width="10" height="10" fill="white" />
    <rect x="110" y="80" width="10" height="10" fill="white" />
    <rect x="90" y="90" width="10" height="10" fill="white" />
    <rect x="100" y="90" width="10" height="10" fill="white" />
  </g>
</svg>